<svg id="Layer_1" data-name="Layer 1" xmlns="http://www.w3.org/2000/svg" viewBox="0 0 50 50"><defs><style>.cls-1{fill:#fff;}</style></defs><path class="cls-1" d="M18.26,22.52a2,2,0,0,0,2-2V19a2,2,0,0,0-4.07,0v1.46A2,2,0,0,0,18.26,22.52Z"/><path class="cls-1" d="M31.21,22.52a2,2,0,0,0,2-2V19a2,2,0,0,0-4.07,0v1.46A2,2,0,0,0,31.21,22.52Z"/><path class="cls-1" d="M25,.17A24.86,24.86,0,0,0,.17,25a25.26,25.26,0,0,0,.37,4.26,24.83,24.83,0,0,0,48.92,0A25.26,25.26,0,0,0,49.83,25,24.86,24.86,0,0,0,25,.17Zm0,45.59A20.69,20.69,0,0,1,4.55,28.56,21,21,0,0,1,4.24,25a20.76,20.76,0,0,1,41.52,0c0,.46,0,.93,0,1.39a19.48,19.48,0,0,1-.26,2.17h0A20.69,20.69,0,0,1,25,45.76Z"/><path class="cls-1" d="M38.87,26.88H11.13a2,2,0,0,0-2,2.45A16.45,16.45,0,0,0,25,42.53a16.45,16.45,0,0,0,15.86-13.2,2,2,0,0,0-2-2.45ZM25,38.46A12.24,12.24,0,0,1,13.9,31H36.1A12.24,12.24,0,0,1,25,38.46Z"/></svg>