<svg id="Layer_1" data-name="Layer 1" xmlns="http://www.w3.org/2000/svg" viewBox="0 0 50 50"><defs><style>.cls-1{fill:#fff;}</style></defs><path class="cls-1" d="M32.19,23.74a2,2,0,0,0,2-2V19.38a2,2,0,0,0-4.07,0V21.7A2,2,0,0,0,32.19,23.74Z"/><path class="cls-1" d="M18.26,23.74a2,2,0,0,0,2-2V19.38a2,2,0,0,0-4.07,0V21.7A2,2,0,0,0,18.26,23.74Z"/><path class="cls-1" d="M38.86,26.93a2,2,0,0,0-2.44,1.51c-1.16,4.87-6,8.4-11.42,8.4s-10.27-3.53-11.42-8.4a2,2,0,0,0-2.44-1.51,2,2,0,0,0-1.52,2.45C11.2,36.06,17.67,40.91,25,40.91s13.8-4.85,15.38-11.53A2,2,0,0,0,38.86,26.93Z"/><path class="cls-1" d="M49.7,22.47a24.83,24.83,0,0,0-49.4,0C.22,23.3.17,24.14.17,25a25.17,25.17,0,0,0,.37,4.26,24.83,24.83,0,0,0,48.92,0A25.26,25.26,0,0,0,49.83,25C49.83,24.14,49.78,23.3,49.7,22.47ZM25,45.76A20.69,20.69,0,0,1,4.55,28.56,21,21,0,0,1,4.24,25a20.76,20.76,0,0,1,40.58-6.17A20.62,20.62,0,0,1,45.76,25a21,21,0,0,1-.31,3.56A20.69,20.69,0,0,1,25,45.76Z"/></svg>