<svg id="Layer_1" data-name="Layer 1" xmlns="http://www.w3.org/2000/svg" viewBox="0 0 50 50"><defs><style>.cls-1{fill:#fff;}</style></defs><path class="cls-1" d="M25,.16A24.84,24.84,0,1,0,49.85,25,24.84,24.84,0,0,0,25,.16ZM17.38,30.25l-5.35,0h0a3,3,0,0,1,0-5.91l5.38,0ZM34.2,29a10.19,10.19,0,0,1-4.4,1.24H26.12V24.3h3.53a4.33,4.33,0,0,0,1.81-.58c.6-.36,1.4-1.07,1.4-3.05s-.74-2.57-1.29-2.9a3.86,3.86,0,0,0-1.72-.51H24.71v.16h0v19.3h0a3,3,0,0,1-5.91-.06V30.24h0V24.33h0v-10a3,3,0,0,1,2.95-2.95h8.13a9.77,9.77,0,0,1,4.36,1.14c2.92,1.57,4.53,4.47,4.53,8.18A9,9,0,0,1,34.2,29Z"/></svg>