<svg id="Layer_1" data-name="Layer 1" xmlns="http://www.w3.org/2000/svg" viewBox="0 0 50 50"><defs><style>.cls-1{fill:#391b1b;}.cls-2{fill:none;}.cls-3{fill:#f9db01;}</style></defs><path class="cls-1" d="M9.61,24.32c0,4.33,2.89,8.13,7.24,10.28a45.57,45.57,0,0,0-1.45,5.09c-.16,1.05.39.91.91.68l6.24-4.07a21.62,21.62,0,0,0,2.57.16c8.56,0,15.5-5.43,15.5-12.14s-6.94-12.14-15.5-12.14S9.61,17.62,9.61,24.32Z"/><circle class="cls-2" cx="25" cy="25" r="24.82" transform="translate(-7.66 38.53) rotate(-67.5)"/><path class="cls-3" d="M18.77,22.28a.84.84,0,0,0,0-1.68H14.18a.84.84,0,1,0,0,1.68h1.45v5.33a.84.84,0,0,0,1.68,0V22.28Z"/><path class="cls-3" d="M23.4,21.74a.35.35,0,0,0-.06-.14,1.54,1.54,0,0,0-1.37-1,1.72,1.72,0,0,0-1.38,1,.36.36,0,0,0,0,.09l-2,5.62a.84.84,0,0,0,.52,1.07.87.87,0,0,0,.28.05.83.83,0,0,0,.79-.56l.33-.92h2.84l.29.9a.84.84,0,1,0,1.6-.52ZM21,25.42,22,22.75l.86,2.67Z"/><path class="cls-3" d="M29.49,26.77h-2V21.44a.84.84,0,0,0-1.68,0v6.17a.85.85,0,0,0,.84.84h2.87a.84.84,0,1,0,0-1.68Z"/><path class="cls-3" d="M34.08,24.18,36.25,22a.83.83,0,0,0,0-1.18.84.84,0,0,0-1.19,0l-2.63,2.59v-2a.84.84,0,0,0-1.68,0v6.17a.84.84,0,0,0,1.68,0V25.78l.43-.42L35,28.12a.81.81,0,0,0,.66.33.87.87,0,0,0,.51-.17.85.85,0,0,0,.16-1.18Z"/></svg>