<svg id="Layer_1" data-name="Layer 1" xmlns="http://www.w3.org/2000/svg" viewBox="0 0 190.4 50.2"><defs><style>.cls-1{fill:#fff;}</style></defs><path class="cls-1" d="M0,.83H15V37.42H38.41v12H0Z"/><path class="cls-1" d="M73.38.83h15V29.75A24.5,24.5,0,0,1,87,37.88a17.6,17.6,0,0,1-4.21,6.68,16.7,16.7,0,0,1-6,4,30.25,30.25,0,0,1-10.5,1.62,66.12,66.12,0,0,1-7.73-.49,20.2,20.2,0,0,1-7-2,17.39,17.39,0,0,1-5.15-4.19A15.27,15.27,0,0,1,43.21,38a28.93,28.93,0,0,1-1.39-8.21V.83h15V30.44A8.46,8.46,0,0,0,59,36.65a8.22,8.22,0,0,0,6.11,2.23,8.26,8.26,0,0,0,6.08-2.2,8.48,8.48,0,0,0,2.2-6.24Z"/><path class="cls-1" d="M94,33.31l14.27-.89a10.87,10.87,0,0,0,1.89,5.3,7.92,7.92,0,0,0,6.62,3,7.37,7.37,0,0,0,5-1.51,4.53,4.53,0,0,0,1.73-3.49,4.46,4.46,0,0,0-1.65-3.38c-1.11-1-3.67-1.93-7.68-2.82q-9.87-2.2-14.08-5.89a11.85,11.85,0,0,1-4.24-9.37A12.69,12.69,0,0,1,98,7.14a14.4,14.4,0,0,1,6.53-5.24Q108.84,0,116.42,0q9.31,0,14.19,3.46t5.82,11l-14.14.83a7.62,7.62,0,0,0-2.37-4.77,7.65,7.65,0,0,0-5-1.49A6,6,0,0,0,111,10.15a3.41,3.41,0,0,0-1.32,2.7,2.71,2.71,0,0,0,1.09,2.09c.71.64,2.38,1.23,5,1.78q9.84,2.13,14.1,4.29a14.87,14.87,0,0,1,6.19,5.38A13.69,13.69,0,0,1,138,33.58a15.43,15.43,0,0,1-2.59,8.61,16.16,16.16,0,0,1-7.22,6,29.28,29.28,0,0,1-11.69,2q-12.37,0-17.15-4.76A18.82,18.82,0,0,1,94,33.31Z"/><path class="cls-1" d="M143.94.83h15v17h16.39V.83H190.4V49.38H175.33V29.74H158.94V49.38h-15Z"/></svg>