<svg id="Layer_1" data-name="Layer 1" xmlns="http://www.w3.org/2000/svg" viewBox="0 0 50 46.11"><defs><style>.cls-1{fill:#fff;}</style></defs><path class="cls-1" d="M12.35,19.55a1.93,1.93,0,0,0-2,1.87v1.45a2,2,0,0,0,4,0V21.42A1.93,1.93,0,0,0,12.35,19.55Z"/><path class="cls-1" d="M37.65,19.55a1.93,1.93,0,0,0-2,1.87v1.45a2,2,0,0,0,4,0V21.42A1.93,1.93,0,0,0,37.65,19.55Z"/><path class="cls-1" d="M46,13.47H39.56C38.85,5.46,33.07,0,25,0S11.15,5.48,10.44,13.47H4a3.9,3.9,0,0,0-4,3.77v25.1a3.9,3.9,0,0,0,4,3.77H46a3.9,3.9,0,0,0,4-3.77V17.24A3.9,3.9,0,0,0,46,13.47ZM25,3.73c5.85,0,9.94,3.85,10.58,9.74H14.42C15.07,7.59,19.19,3.73,25,3.73ZM46,42.34a.06.06,0,0,1,0,0H4a.06.06,0,0,1,0,0V17.24s0,0,0,0H46s0,0,0,0Z"/></svg>