<svg id="Layer_1" data-name="Layer 1" xmlns="http://www.w3.org/2000/svg" viewBox="0 0 50 50"><defs><style>.cls-1{fill:#fff;}</style></defs><polygon class="cls-1" points="22.05 20.52 29.93 25.07 22.05 29.61 22.05 20.52"/><path class="cls-1" d="M25.06.28A24.79,24.79,0,1,0,49.85,25.06,24.79,24.79,0,0,0,25.06.28ZM40.16,31.5s-.39,3.62-3.72,4c-3.52.38-17.75.79-22.64,0a4.4,4.4,0,0,1-3.9-4.11c-.34-3.82-.67-9.24,0-12.89a4.15,4.15,0,0,1,4-3.89c4-.48,17.39-.63,21.84,0,0,0,4,.06,4.36,3.89A63.65,63.65,0,0,1,40.16,31.5Z"/><polygon class="cls-1" points="29.93 25.07 22.05 29.61 22.05 20.52 29.93 25.07"/><polygon class="cls-1" points="29.93 25.07 22.05 29.61 22.05 20.52 29.93 25.07"/></svg>